<mxfile host="app.diagrams.net" modified="2023-06-12T08:48:41.355Z" agent="Mozilla/5.0 (X11; Ubuntu; Linux x86_64; rv:109.0) Gecko/20100101 Firefox/113.0" etag="3iZXpGoxoSK_xbOP2hCL" version="21.3.8" type="device">
  <diagram name="Page-1" id="5YrNJyCma5x4sLu6vePi">
    <mxGraphModel dx="2257" dy="1925" grid="1" gridSize="10" guides="1" tooltips="1" connect="1" arrows="1" fold="1" page="1" pageScale="1" pageWidth="827" pageHeight="1169" math="0" shadow="0">
      <root>
        <mxCell id="0" />
        <mxCell id="1" parent="0" />
        <mxCell id="r6BEVvw9kx4d1JTbunWJ-13" value="" style="rounded=1;whiteSpace=wrap;html=1;fillColor=#dae8fc;strokeColor=#6c8ebf;" parent="1" vertex="1">
          <mxGeometry x="330" y="-10" width="260" height="690" as="geometry" />
        </mxCell>
        <mxCell id="r6BEVvw9kx4d1JTbunWJ-22" style="rounded=0;orthogonalLoop=1;jettySize=auto;html=1;exitX=1;exitY=0.5;exitDx=0;exitDy=0;entryX=0;entryY=0.5;entryDx=0;entryDy=0;" parent="1" source="r6BEVvw9kx4d1JTbunWJ-7" target="r6BEVvw9kx4d1JTbunWJ-11" edge="1">
          <mxGeometry relative="1" as="geometry" />
        </mxCell>
        <mxCell id="r6BEVvw9kx4d1JTbunWJ-7" value="" style="shape=image;html=1;verticalAlign=top;verticalLabelPosition=bottom;labelBackgroundColor=#ffffff;imageAspect=0;aspect=fixed;image=https://cdn2.iconfinder.com/data/icons/atrous/512/command_line_prompt_shell-128.png" parent="1" vertex="1">
          <mxGeometry x="400" y="200" width="110" height="110" as="geometry" />
        </mxCell>
        <mxCell id="r6BEVvw9kx4d1JTbunWJ-16" style="rounded=0;orthogonalLoop=1;jettySize=auto;html=1;exitX=1;exitY=0;exitDx=0;exitDy=0;" parent="1" source="r6BEVvw9kx4d1JTbunWJ-1" edge="1">
          <mxGeometry relative="1" as="geometry">
            <mxPoint x="410" y="134.22848664688445" as="targetPoint" />
          </mxGeometry>
        </mxCell>
        <mxCell id="r6BEVvw9kx4d1JTbunWJ-18" style="rounded=0;orthogonalLoop=1;jettySize=auto;html=1;exitX=1;exitY=0.5;exitDx=0;exitDy=0;entryX=0;entryY=0.5;entryDx=0;entryDy=0;" parent="1" source="r6BEVvw9kx4d1JTbunWJ-1" target="r6BEVvw9kx4d1JTbunWJ-7" edge="1">
          <mxGeometry relative="1" as="geometry" />
        </mxCell>
        <mxCell id="r6BEVvw9kx4d1JTbunWJ-1" value="" style="shape=image;html=1;verticalAlign=top;verticalLabelPosition=bottom;labelBackgroundColor=#ffffff;imageAspect=0;aspect=fixed;image=https://cdn0.iconfinder.com/data/icons/kameleon-free-pack-rounded/110/Hacker-128.png" parent="1" vertex="1">
          <mxGeometry x="-10" y="259" width="128" height="128" as="geometry" />
        </mxCell>
        <mxCell id="r6BEVvw9kx4d1JTbunWJ-19" style="rounded=0;orthogonalLoop=1;jettySize=auto;html=1;exitX=1;exitY=0.25;exitDx=0;exitDy=0;" parent="1" source="r6BEVvw9kx4d1JTbunWJ-3" target="r6BEVvw9kx4d1JTbunWJ-8" edge="1">
          <mxGeometry relative="1" as="geometry" />
        </mxCell>
        <mxCell id="r6BEVvw9kx4d1JTbunWJ-20" style="rounded=0;orthogonalLoop=1;jettySize=auto;html=1;exitX=1;exitY=1;exitDx=0;exitDy=0;entryX=0;entryY=0.5;entryDx=0;entryDy=0;" parent="1" source="r6BEVvw9kx4d1JTbunWJ-3" edge="1">
          <mxGeometry relative="1" as="geometry">
            <mxPoint x="370" y="570" as="targetPoint" />
          </mxGeometry>
        </mxCell>
        <mxCell id="r6BEVvw9kx4d1JTbunWJ-3" value="" style="shape=image;html=1;verticalAlign=top;verticalLabelPosition=bottom;labelBackgroundColor=#ffffff;imageAspect=0;aspect=fixed;image=https://cdn2.iconfinder.com/data/icons/valentine-day-16/512/706_pen_love_heart_wedding_valentine_valentines_day_love-128.png" parent="1" vertex="1">
          <mxGeometry x="58" y="329" width="60" height="60" as="geometry" />
        </mxCell>
        <mxCell id="r6BEVvw9kx4d1JTbunWJ-21" style="rounded=0;orthogonalLoop=1;jettySize=auto;html=1;exitX=1;exitY=0.75;exitDx=0;exitDy=0;entryX=0;entryY=0;entryDx=0;entryDy=0;" parent="1" target="r6BEVvw9kx4d1JTbunWJ-11" edge="1">
          <mxGeometry relative="1" as="geometry">
            <mxPoint x="500" y="137.5" as="sourcePoint" />
          </mxGeometry>
        </mxCell>
        <mxCell id="r6BEVvw9kx4d1JTbunWJ-5" value="&lt;font style=&quot;font-size: 20px;&quot; face=&quot;Times New Roman&quot; color=&quot;#ffffff&quot;&gt;&lt;b style=&quot;font-size: 20px;&quot;&gt;Shell&lt;/b&gt;&lt;/font&gt;" style="text;html=1;align=center;verticalAlign=middle;whiteSpace=wrap;rounded=0;fontSize=20;fontStyle=2" parent="1" vertex="1">
          <mxGeometry x="425" y="250" width="60" height="30" as="geometry" />
        </mxCell>
        <mxCell id="r6BEVvw9kx4d1JTbunWJ-23" style="rounded=0;orthogonalLoop=1;jettySize=auto;html=1;exitX=1;exitY=0.5;exitDx=0;exitDy=0;entryX=0;entryY=0.75;entryDx=0;entryDy=0;" parent="1" source="r6BEVvw9kx4d1JTbunWJ-8" target="r6BEVvw9kx4d1JTbunWJ-11" edge="1">
          <mxGeometry relative="1" as="geometry" />
        </mxCell>
        <mxCell id="r6BEVvw9kx4d1JTbunWJ-8" value="" style="shape=image;html=1;verticalAlign=top;verticalLabelPosition=bottom;labelBackgroundColor=#ffffff;imageAspect=0;aspect=fixed;image=https://cdn4.iconfinder.com/data/icons/humility-icons-MERGE/48x48/apps/gnome-remote-shell.png" parent="1" vertex="1">
          <mxGeometry x="398" y="350" width="110" height="110" as="geometry" />
        </mxCell>
        <mxCell id="r6BEVvw9kx4d1JTbunWJ-9" value="&lt;font color=&quot;#ffffff&quot;&gt;SSH&lt;/font&gt;" style="text;strokeColor=none;align=center;fillColor=none;html=1;verticalAlign=middle;whiteSpace=wrap;rounded=0;fontStyle=3" parent="1" vertex="1">
          <mxGeometry x="440" y="420" width="60" height="30" as="geometry" />
        </mxCell>
        <mxCell id="r6BEVvw9kx4d1JTbunWJ-24" style="rounded=0;orthogonalLoop=1;jettySize=auto;html=1;exitX=1;exitY=0.5;exitDx=0;exitDy=0;entryX=0.25;entryY=1;entryDx=0;entryDy=0;" parent="1" target="r6BEVvw9kx4d1JTbunWJ-11" edge="1">
          <mxGeometry relative="1" as="geometry">
            <mxPoint x="560.48" y="570" as="sourcePoint" />
          </mxGeometry>
        </mxCell>
        <mxCell id="r6BEVvw9kx4d1JTbunWJ-11" value="" style="shape=image;html=1;verticalAlign=top;verticalLabelPosition=bottom;labelBackgroundColor=#ffffff;imageAspect=0;aspect=fixed;image=https://cdn4.iconfinder.com/data/icons/essentials-71/24/048_-_Target-128.png" parent="1" vertex="1">
          <mxGeometry x="770" y="250" width="148" height="148" as="geometry" />
        </mxCell>
        <mxCell id="r6BEVvw9kx4d1JTbunWJ-12" value="" style="image;html=1;image=img/lib/clip_art/computers/Server_128x128.png" parent="1" vertex="1">
          <mxGeometry x="814" y="289.5" width="66" height="70.5" as="geometry" />
        </mxCell>
        <mxCell id="r6BEVvw9kx4d1JTbunWJ-14" value="&lt;font size=&quot;1&quot; face=&quot;Garamond&quot;&gt;&lt;b style=&quot;font-size: 20px;&quot;&gt;AttackMate&lt;/b&gt;&lt;/font&gt;" style="text;strokeColor=none;align=center;fillColor=none;html=1;verticalAlign=middle;whiteSpace=wrap;rounded=0;" parent="1" vertex="1">
          <mxGeometry x="31" y="269" width="46" height="20" as="geometry" />
        </mxCell>
        <mxCell id="r6BEVvw9kx4d1JTbunWJ-25" value="&lt;font style=&quot;font-size: 17px;&quot;&gt;Target&lt;/font&gt;" style="text;strokeColor=none;align=center;fillColor=none;html=1;verticalAlign=middle;whiteSpace=wrap;rounded=0;" parent="1" vertex="1">
          <mxGeometry x="810" y="210" width="60" height="30" as="geometry" />
        </mxCell>
        <mxCell id="r6BEVvw9kx4d1JTbunWJ-26" value="playbook" style="swimlane;fontStyle=0;childLayout=stackLayout;horizontal=1;startSize=30;horizontalStack=0;resizeParent=1;resizeParentMax=0;resizeLast=0;collapsible=1;marginBottom=0;whiteSpace=wrap;html=1;" parent="1" vertex="1">
          <mxGeometry x="4" y="398" width="100" height="120" as="geometry" />
        </mxCell>
        <mxCell id="r6BEVvw9kx4d1JTbunWJ-27" value="command1" style="text;strokeColor=none;fillColor=none;align=left;verticalAlign=middle;spacingLeft=4;spacingRight=4;overflow=hidden;points=[[0,0.5],[1,0.5]];portConstraint=eastwest;rotatable=0;whiteSpace=wrap;html=1;" parent="r6BEVvw9kx4d1JTbunWJ-26" vertex="1">
          <mxGeometry y="30" width="100" height="30" as="geometry" />
        </mxCell>
        <mxCell id="r6BEVvw9kx4d1JTbunWJ-28" value="command2" style="text;strokeColor=none;fillColor=none;align=left;verticalAlign=middle;spacingLeft=4;spacingRight=4;overflow=hidden;points=[[0,0.5],[1,0.5]];portConstraint=eastwest;rotatable=0;whiteSpace=wrap;html=1;" parent="r6BEVvw9kx4d1JTbunWJ-26" vertex="1">
          <mxGeometry y="60" width="100" height="30" as="geometry" />
        </mxCell>
        <mxCell id="r6BEVvw9kx4d1JTbunWJ-29" value="command3" style="text;strokeColor=none;fillColor=none;align=left;verticalAlign=middle;spacingLeft=4;spacingRight=4;overflow=hidden;points=[[0,0.5],[1,0.5]];portConstraint=eastwest;rotatable=0;whiteSpace=wrap;html=1;" parent="r6BEVvw9kx4d1JTbunWJ-26" vertex="1">
          <mxGeometry y="90" width="100" height="30" as="geometry" />
        </mxCell>
        <mxCell id="r6BEVvw9kx4d1JTbunWJ-30" value="&lt;font style=&quot;font-size: 18px;&quot;&gt;&lt;b&gt;Executors&lt;/b&gt;&lt;/font&gt;" style="text;strokeColor=none;align=center;fillColor=none;html=1;verticalAlign=middle;whiteSpace=wrap;rounded=0;" parent="1" vertex="1">
          <mxGeometry x="425" width="60" height="30" as="geometry" />
        </mxCell>
        <mxCell id="r6BEVvw9kx4d1JTbunWJ-31" value="command" style="text;strokeColor=none;align=center;fillColor=none;html=1;verticalAlign=middle;whiteSpace=wrap;rounded=0;rotation=-25;" parent="1" vertex="1">
          <mxGeometry x="160" y="180" width="80" height="30" as="geometry" />
        </mxCell>
        <mxCell id="r6BEVvw9kx4d1JTbunWJ-32" value="command" style="text;strokeColor=none;align=center;fillColor=none;html=1;verticalAlign=middle;whiteSpace=wrap;rounded=0;rotation=-15;" parent="1" vertex="1">
          <mxGeometry x="190" y="259.5" width="80" height="30" as="geometry" />
        </mxCell>
        <mxCell id="r6BEVvw9kx4d1JTbunWJ-33" value="command" style="text;strokeColor=none;align=center;fillColor=none;html=1;verticalAlign=middle;whiteSpace=wrap;rounded=0;rotation=15;" parent="1" vertex="1">
          <mxGeometry x="220" y="329" width="80" height="30" as="geometry" />
        </mxCell>
        <mxCell id="r6BEVvw9kx4d1JTbunWJ-34" value="command" style="text;strokeColor=none;align=center;fillColor=none;html=1;verticalAlign=middle;whiteSpace=wrap;rounded=0;rotation=30;" parent="1" vertex="1">
          <mxGeometry x="200" y="443" width="80" height="30" as="geometry" />
        </mxCell>
        <mxCell id="r6BEVvw9kx4d1JTbunWJ-35" value="attack" style="text;strokeColor=none;align=center;fillColor=none;html=1;verticalAlign=middle;whiteSpace=wrap;rounded=0;rotation=30;" parent="1" vertex="1">
          <mxGeometry x="650" y="180" width="80" height="30" as="geometry" />
        </mxCell>
        <mxCell id="r6BEVvw9kx4d1JTbunWJ-36" value="attack" style="text;strokeColor=none;align=center;fillColor=none;html=1;verticalAlign=middle;whiteSpace=wrap;rounded=0;rotation=15;" parent="1" vertex="1">
          <mxGeometry x="630" y="259" width="80" height="30" as="geometry" />
        </mxCell>
        <mxCell id="r6BEVvw9kx4d1JTbunWJ-37" value="attack" style="text;strokeColor=none;align=center;fillColor=none;html=1;verticalAlign=middle;whiteSpace=wrap;rounded=0;rotation=-10;" parent="1" vertex="1">
          <mxGeometry x="620" y="344" width="80" height="30" as="geometry" />
        </mxCell>
        <mxCell id="r6BEVvw9kx4d1JTbunWJ-38" value="attack" style="text;strokeColor=none;align=center;fillColor=none;html=1;verticalAlign=middle;whiteSpace=wrap;rounded=0;rotation=-40;" parent="1" vertex="1">
          <mxGeometry x="630" y="443" width="80" height="30" as="geometry" />
        </mxCell>
        <mxCell id="aV0mc3pKQ5PpJiy3mEa9-1" value="Metasploit" style="text;html=1;strokeColor=none;fillColor=none;align=center;verticalAlign=middle;whiteSpace=wrap;rounded=0;fontStyle=1;fontSize=23;fontFamily=Courier New;" vertex="1" parent="1">
          <mxGeometry x="425" y="100" width="60" height="30" as="geometry" />
        </mxCell>
        <mxCell id="aV0mc3pKQ5PpJiy3mEa9-2" value="&lt;div style=&quot;font-size: 20px;&quot;&gt;&lt;font style=&quot;font-size: 20px;&quot;&gt;&lt;span style=&quot;font-size: 20px;&quot;&gt;Sliver&lt;/span&gt;&lt;/font&gt;&lt;/div&gt;&lt;div style=&quot;font-size: 20px;&quot;&gt;&lt;font style=&quot;font-size: 20px;&quot;&gt;&lt;span style=&quot;font-size: 20px;&quot;&gt;Framework&lt;/span&gt;&lt;/font&gt;&lt;br style=&quot;font-size: 20px;&quot;&gt;&lt;/div&gt;" style="text;html=1;strokeColor=none;fillColor=none;align=center;verticalAlign=middle;whiteSpace=wrap;rounded=0;fontFamily=Courier New;fontSize=20;fontStyle=1" vertex="1" parent="1">
          <mxGeometry x="380" y="540" width="160" height="60" as="geometry" />
        </mxCell>
      </root>
    </mxGraphModel>
  </diagram>
</mxfile>
